<svg width="7705" height="7705" viewBox="0 0 7705 7705" fill="none" xmlns="http://www.w3.org/2000/svg">
<circle cx="3852.5" cy="3852.5" r="3852.5" fill="#86A659"/>
<path d="M3853.28 1505C4087.36 1505 4277.61 1692.65 4281.81 1925.72H4281.88V5772.95C4281.88 6009.67 4089.99 6201.56 3853.28 6201.56C3616.57 6201.56 3424.68 6009.67 3424.68 5772.95V1925.72H3424.75C3428.95 1692.65 3619.2 1505 3853.28 1505Z" fill="white"/>
<path d="M1505 3853.29C1505 3619.21 1692.65 3428.95 1925.73 3424.75V3424.68L5772.95 3424.68C6009.67 3424.68 6201.56 3616.57 6201.56 3853.29C6201.56 4090 6009.67 4281.89 5772.96 4281.89H1925.73V4281.82C1692.65 4277.62 1505 4087.37 1505 3853.29Z" fill="white"/>
</svg>
