<svg width="8417" height="8417" viewBox="0 0 8417 8417" fill="none" xmlns="http://www.w3.org/2000/svg">
<circle cx="4208.5" cy="4208.5" r="3971" stroke="white" stroke-width="475"/>
<path fill-rule="evenodd" clip-rule="evenodd" d="M4209.28 1861C4443.36 1861 4633.61 2048.65 4637.81 2281.72H4637.88V6128.95C4637.88 6365.67 4445.99 6557.56 4209.28 6557.56C3972.57 6557.56 3780.68 6365.67 3780.68 6128.95V2281.72H3780.75C3784.95 2048.65 3975.2 1861 4209.28 1861Z" fill="white"/>
<path fill-rule="evenodd" clip-rule="evenodd" d="M1861 4209.29C1861 3975.21 2048.65 3784.95 2281.73 3780.75V3780.68L6128.95 3780.68C6365.67 3780.68 6557.56 3972.57 6557.56 4209.29C6557.56 4446 6365.67 4637.89 6128.96 4637.89H2281.73V4637.82C2048.65 4633.62 1861 4443.37 1861 4209.29Z" fill="white"/>
</svg>
